<?xml version="1.0" ?><svg id="Layer_1" style="enable-background:new 0 0 91 91;" version="1.1" viewBox="0 0 91 91" xml:space="preserve" xmlns="http://www.w3.org/2000/svg" xmlns:xlink="http://www.w3.org/1999/xlink"><g><path d="M39.8,46.9c0-3.5,1.4-6.9,3.9-9.4c2.1-2.1,4.8-3.4,7.6-3.8v-6.9l-14-6.8v44.8l14,6.8V60c-2.8-0.4-5.5-1.6-7.6-3.8   C41.1,53.8,39.8,50.4,39.8,46.9z"/><path d="M70.8,19.7c-0.5-0.3-1.1-0.3-1.6-0.1l-14.5,7.2v6.9c2.9,0.4,5.7,1.7,7.8,3.8c2.5,2.5,3.9,5.8,3.9,9.4c0,3-1,5.8-2.8,8.1   l8.3,8.3l-0.3-42.2C71.6,20.5,71.3,20,70.8,19.7z"/><path d="M33.9,20.1L19.7,28c-0.5,0.3-0.9,0.9-0.9,1.5v41c0,0.6,0.3,1.2,0.8,1.5c0.5,0.3,1.2,0.3,1.7,0l12.5-7V20.1z"/><path d="M54.7,60v11.6l14.8-6l-8.3-8.3C59.2,58.9,57,59.8,54.7,60z"/><path d="M53.1,37L53.1,37c-2.6,0-5.1,1-7,2.9c-1.9,1.9-2.9,4.4-2.9,7c0,2.6,1,5.1,2.9,7c3.9,3.9,10.2,3.9,14,0   c1.9-1.9,2.9-4.4,2.9-7c0-2.6-1-5.1-2.9-7c0,0,0,0,0,0C58.2,38,55.7,37,53.1,37z"/><path d="M71.9,63.5c0,0.7-0.4,1.3-1,1.6l-1.3,0.5l5.6,5.6l2.4-2.4l-5.6-5.6L71.9,63.5z"/></g></svg>